Coordinates
version=1
nRows=38
nColumns=12
inDegrees=yes

Units are S.I. units (second, meters, Newtons, ...)
Angles are in degrees

endheader
time	SC_y	SC_z	SC_x	AC_y	AC_z	AC_x	GH_y	GH_z	GH_yy	EL_x	PS_y
       0.0              -32.83       -0.07453          41.93          65.13          6.378         -7.247         -129.2           43.9          82.52          83.64          30.94
   0.02835              -32.84       -0.07366          41.93          65.13          6.378         -7.245         -129.2          43.91          82.53          83.63          30.95
    0.0567              -32.84       -0.07274          41.92          65.12          6.377         -7.243         -129.2          43.91          82.53          83.62          30.96
   0.08504              -32.84       -0.07176          41.92          65.12          6.375          -7.24         -129.2          43.92          82.54          83.61          30.97
    0.1134              -32.85       -0.07072          41.92          65.12          6.374         -7.238         -129.2          43.92          82.55           83.6          30.99
    0.1417              -32.85       -0.06961          41.91          65.11          6.373         -7.236         -129.2          43.93          82.56          83.59           31.0
    0.1701              -32.85       -0.06842          41.91          65.11          6.372         -7.233         -129.2          43.93          82.56          83.58          31.01
    0.1984              -32.86       -0.06715           41.9           65.1          6.371          -7.23         -129.2          43.94          82.57          83.56          31.03
    0.2268              -32.86       -0.06579           41.9          65.09          6.369         -7.227         -129.2          43.95          82.58          83.55          31.04
    0.2551              -32.87       -0.06433          41.89          65.09          6.367         -7.224         -129.2          43.96          82.59          83.54          31.06
    0.2835              -32.87       -0.06276          41.89          65.08          6.366          -7.22         -129.2          43.96           82.6          83.52          31.08
    0.3118              -32.88       -0.06108          41.88          65.07          6.364         -7.217         -129.3          43.97          82.61           83.5           31.1
    0.3402              -32.88       -0.05926          41.88          65.07          6.362         -7.212         -129.3          43.98          82.63          83.49          31.12
    0.3685              -32.89        -0.0573          41.87          65.06           6.36         -7.208         -129.3          43.99          82.64          83.47          31.14
    0.3969               -32.9       -0.05517          41.86          65.05          6.358         -7.203         -129.3           44.0          82.65          83.45          31.17
    0.4252               -32.9       -0.05287          41.85          65.04          6.355         -7.198         -129.3          44.02          82.67          83.42          31.19
    0.4536              -32.91       -0.05036          41.84          65.03          6.352         -7.193         -129.3          44.03          82.68           83.4          31.22
    0.4819              -32.92       -0.04764          41.84          65.01          6.349         -7.186         -129.4          44.04           82.7          83.37          31.25
    0.5103              -32.93       -0.04466          41.82           65.0          6.346          -7.18         -129.4          44.06          82.72          83.34          31.29
    0.5386              -32.94       -0.04139          41.81          64.99          6.343         -7.173         -129.4          44.08          82.75          83.31          31.33
     0.567              -32.95       -0.03781           41.8          64.97          6.339         -7.164         -129.4           44.1          82.77          83.27          31.37
    0.5953              -32.96       -0.03387          41.79          64.95          6.335         -7.156         -129.5          44.12           82.8          83.23          31.41
    0.6237              -32.98       -0.02952          41.77          64.94           6.33         -7.146         -129.5          44.14          82.83          83.19          31.47
     0.652              -32.99       -0.02469          41.75          64.91          6.325         -7.135         -129.5          44.16          82.86          83.14          31.52
    0.6804              -33.01       -0.01933          41.74          64.89          6.319         -7.123         -129.6          44.19          82.89          83.09          31.58
    0.7087              -33.03       -0.01335          41.71          64.87          6.312          -7.11         -129.6          44.22          82.93          83.03          31.65
    0.7371              -33.05      -0.006646          41.69          64.84          6.305         -7.095         -129.7          44.26          82.98          82.96          31.73
    0.7654              -33.08      0.0008947          41.66           64.8          6.297         -7.078         -129.7           44.3          83.03          82.89          31.82
    0.7937               -33.1       0.009415          41.63          64.77          6.288         -7.059         -129.8          44.34          83.09           82.8          31.92
    0.8221              -33.13        0.01909           41.6          64.72          6.277         -7.037         -129.9           44.4          83.15          82.71          32.03
    0.8504              -33.17        0.03013          41.56          64.68          6.265         -7.012         -129.9          44.45          83.23           82.6          32.16
    0.8788              -33.21         0.0428          41.52          64.62          6.252         -6.984         -130.0          44.52          83.31          82.47          32.31
    0.9071              -33.26        0.05743          41.47          64.56          6.236         -6.951         -130.1           44.6          83.41          82.32          32.48
    0.9355              -33.31        0.07443          41.41          64.48          6.218         -6.913         -130.3          44.69          83.52          82.16          32.67
    0.9638              -33.37        0.09432          41.34           64.4          6.196         -6.869         -130.4          44.79          83.66          81.96           32.9
    0.9922              -33.45         0.1178          41.25          64.29          6.171         -6.816         -130.6          44.91          83.82          81.72          33.18
     1.021              -33.54         0.1456          41.15          64.17          6.141         -6.754         -130.8          45.06           84.0          81.45           33.5
     1.049              -33.65          0.179          41.04          64.03          6.105         -6.679         -131.1          45.24          84.23          81.11          33.89
